<svg width="64" height="64" viewBox="0 0 64 64" fill="none" xmlns="http://www.w3.org/2000/svg">
<path d="M43.0512 24.0673C43.8141 24.8303 43.8141 26.067 43.0512 26.8296L29.9485 39.9327C29.1855 40.6952 27.9492 40.6952 27.1862 39.9327L20.9488 33.6949C20.1859 32.9323 20.1859 31.6956 20.9488 30.933C21.7114 30.1701 22.9481 30.1701 23.7107 30.933L28.5672 35.7895L40.289 24.0673C41.0519 23.3048 42.2886 23.3048 43.0512 24.0673ZM57 32C57 45.8187 45.8168 57 32 57C18.1813 57 7 45.8168 7 32C7 18.1813 18.1832 7 32 7C45.8187 7 57 18.1832 57 32ZM53.0938 32C53.0938 20.3404 43.6581 10.9062 32 10.9062C20.3404 10.9062 10.9062 20.3419 10.9062 32C10.9062 43.6596 20.3419 53.0938 32 53.0938C43.6596 53.0938 53.0938 43.6581 53.0938 32Z" fill="white"/>
</svg>
