<svg width="65" height="64" viewBox="0 0 65 64" fill="none" xmlns="http://www.w3.org/2000/svg">
<path d="M53.9618 15.7127L32.7993 4.12736C32.6485 4.04479 32.4794 4.00102 32.3074 4.00002C32.1354 3.99901 31.9659 4.04079 31.8141 4.12159L10.0489 15.7063C9.88308 15.7946 9.74442 15.9262 9.64774 16.0871C9.55106 16.248 9.49999 16.4322 9.5 16.6198V29.6852C9.50026 35.8344 11.3184 41.8466 14.7263 46.9676C18.1342 52.0887 22.9801 56.0905 28.6562 58.4712L31.9658 59.8988C32.0961 59.9549 32.2365 59.9838 32.3784 59.9835C32.5202 59.9833 32.6606 59.9539 32.7906 59.8973L35.7297 58.6176C41.3046 56.1824 46.0487 52.1778 49.3821 47.0933C52.7155 42.0087 54.4939 36.0643 54.5 29.9865V16.6203C54.5 16.4347 54.45 16.2525 54.3553 16.0929C54.2606 15.9332 54.1247 15.8019 53.9618 15.7127ZM52.4276 29.9865C52.4216 35.6617 50.7608 41.2123 47.648 45.96C44.5353 50.7078 40.1054 54.447 34.8997 56.7209L32.3747 57.8203L29.4733 56.569L29.4659 56.5659C24.1647 54.3434 19.6385 50.6067 16.4552 45.8246C13.2719 41.0425 11.5733 35.4279 11.5724 29.6852V17.2411L32.2943 6.21096L52.4276 17.233V29.9865Z" fill="white" stroke="white"/>
<path d="M34.8589 37.3813H30.1209L29.4497 17.4619H35.5302L34.8589 37.3813ZM32.4899 40.5005C33.4507 40.5005 34.2206 40.7834 34.7997 41.3493C35.392 41.9153 35.6881 42.6391 35.6881 43.5209C35.6881 44.3896 35.392 45.1068 34.7997 45.6728C34.2206 46.2387 33.4507 46.5217 32.4899 46.5217C31.5423 46.5217 30.7724 46.2387 30.1802 45.6728C29.6011 45.1068 29.3115 44.3896 29.3115 43.5209C29.3115 42.6523 29.6011 41.935 30.1802 41.3691C30.7724 40.79 31.5423 40.5005 32.4899 40.5005Z" fill="white"/>
</svg>
