<svg width="64" height="64" viewBox="0 0 64 64" fill="none" xmlns="http://www.w3.org/2000/svg">
<path d="M58.8683 23.9852L52.4348 9.21959C52.1833 8.64257 51.6138 8.26953 50.9844 8.26953H13.0157C12.3863 8.26953 11.8167 8.64257 11.5654 9.21959L5.13181 23.9852C4.88923 24.5422 4.98679 25.1888 5.38314 25.6492L30.8011 55.1803C31.1016 55.5295 31.5393 55.7304 32.0001 55.7304C32.4609 55.7304 32.8986 55.5295 33.1992 55.1803L58.6171 25.6492C59.0132 25.1888 59.1109 24.5422 58.8683 23.9852ZM39.322 26.1992L32 48.9786L24.6781 26.1992H39.322ZM25.4056 23.0351L32 12.7771L38.5944 23.0351H25.4056ZM34.8978 11.4336H48.0866L41.4922 21.6916L34.8978 11.4336ZM22.5079 21.6916L15.9134 11.4336H29.1023L22.5079 21.6916ZM28.1038 47.1964L10.0311 26.1992H21.3547L28.1038 47.1964ZM42.6454 26.1992H53.9689L35.8963 47.1964L42.6454 26.1992ZM44.3899 23.0351L50.7156 13.1952L55.0029 23.0351H44.3899ZM13.2845 13.1952L19.6101 23.0351H8.99713L13.2845 13.1952Z" fill="white"/>
</svg>
