<svg width="48" height="46" viewBox="0 0 48 46" fill="none" xmlns="http://www.w3.org/2000/svg">
<g clip-path="url(#clip0)">
<path d="M33.5713 28.9697C34.2266 28.9697 34.7578 28.4385 34.7578 27.7832C34.7578 27.1279 34.2266 26.5966 33.5713 26.5966C32.916 26.5966 32.3848 27.1279 32.3848 27.7832C32.3848 28.4385 32.916 28.9697 33.5713 28.9697Z" fill="#FA3F3F"/>
<path d="M41.877 22.0547V15.918C41.877 15.2627 41.3457 14.7314 40.6904 14.7314H39.7355C39.4172 13.8569 36.9226 7.00314 36.538 5.94627C36.3142 5.33133 35.6347 5.01366 35.0193 5.23633L21.8946 9.98535H7.30957C5.34682 9.98535 3.75 11.5822 3.75 13.5449V37.2754C3.75 39.2381 5.34682 40.835 7.30957 40.835H40.6904C41.3457 40.835 41.877 40.3037 41.877 39.6484V33.5117C43.258 33.0219 44.25 31.7031 44.25 30.1563V25.4102C44.25 23.8633 43.258 22.5445 41.877 22.0547ZM30.3592 9.44612C30.9615 10.4364 31.8415 11.2279 32.9158 11.7288C33.9467 12.2095 35.1044 12.4004 36.2963 12.2205L37.2102 14.7314H15.7523L30.3592 9.44612ZM35.4564 9.91305C34.9318 9.91835 34.4083 9.8065 33.9187 9.57814C33.427 9.3489 33.0034 9.01786 32.6696 8.61017L34.7131 7.87073L35.4564 9.91305ZM7.30957 12.3584H15.3362L8.77785 14.7314H7.30957C6.65532 14.7314 6.12305 14.1992 6.12305 13.5449C6.12305 12.8907 6.65532 12.3584 7.30957 12.3584ZM7.30957 38.4619C6.65532 38.4619 6.12305 37.9296 6.12305 37.2754V16.9004C6.49443 17.0321 6.89365 17.1045 7.30957 17.1045H39.5039V21.8506H33.5713C30.3 21.8506 27.6387 24.512 27.6387 27.7832C27.6387 31.0544 30.3 33.7158 33.5713 33.7158H39.5039V38.4619H7.30957ZM41.877 30.1563C41.877 30.8105 41.3447 31.3428 40.6904 31.3428H33.5713C31.6085 31.3428 30.0117 29.746 30.0117 27.7832C30.0117 25.8205 31.6085 24.2236 33.5713 24.2236H40.6904C41.3447 24.2236 41.877 24.7559 41.877 25.4102V30.1563Z" fill="#FA3F3F"/>
<path d="M19.3564 27.5204C18.7002 26.9247 17.821 26.5966 16.8809 26.5966C16.2711 26.5966 15.6944 25.943 15.6944 25.2517C15.6944 24.8067 16.0047 24.3878 16.485 24.1844C16.7834 24.058 17.5704 23.8536 18.4284 24.6848C18.8991 25.1408 19.6502 25.1289 20.1061 24.6583C20.5621 24.1878 20.5502 23.4365 20.0796 22.9806C19.4834 22.4029 18.7901 22.0127 18.0675 21.8244V20.6642C18.0675 20.0089 17.5363 19.4777 16.881 19.4777C16.2257 19.4777 15.6945 20.0089 15.6945 20.6642V21.9453C15.6493 21.9625 15.6043 21.9804 15.5595 21.9994C14.1999 22.575 13.3214 23.8517 13.3214 25.2516C13.3214 27.267 14.9514 28.9696 16.8809 28.9696C17.4524 28.9696 18.0675 29.2913 18.0675 29.9977C18.0675 30.5029 17.7628 30.9533 17.3095 31.1184C16.728 31.3301 16.038 31.0271 15.4164 30.287C14.995 29.7853 14.2465 29.7201 13.7447 30.1416C13.243 30.563 13.1778 31.3115 13.5992 31.8132C14.2219 32.5547 14.9415 33.0696 15.6943 33.3401V34.9022C15.6943 35.5575 16.2256 36.0888 16.8809 36.0888C17.5361 36.0888 18.0674 35.5575 18.0674 34.9022V33.3666C18.0854 33.3604 18.1036 33.3548 18.1216 33.3482C19.5086 32.8431 20.4405 31.4966 20.4405 29.9977C20.4405 29.0348 20.0555 28.1549 19.3564 27.5204Z" fill="#FA3F3F"/>
</g>
<defs>
<clipPath id="clip0">
<rect width="48" height="46" rx="4" fill="white"/>
</clipPath>
</defs>
</svg>
