<svg width="64" height="64" viewBox="0 0 64 64" fill="none" xmlns="http://www.w3.org/2000/svg">
<path d="M10.8111 22.625H3.46113V26.375H10.8111V22.625Z" fill="white"/>
<path d="M10.8111 37.625H3.46113V41.375H10.8111V37.625Z" fill="white"/>
<path d="M10.8112 30.125H0V33.875H10.8112V30.125Z" fill="white"/>
<path d="M39.2805 7.28052C25.6502 7.28052 14.5611 18.3696 14.5611 31.9999C14.5611 45.6301 25.6501 56.7193 39.2805 56.7193C52.9109 56.7193 64 45.6301 64 31.9999C64 18.3696 52.9109 7.28052 39.2805 7.28052ZM39.2805 52.9693C27.718 52.9693 18.3111 43.5624 18.3111 31.9999C18.3111 20.4374 27.718 11.0305 39.2805 11.0305C50.8431 11.0305 60.25 20.4374 60.25 31.9999C60.25 43.5624 50.8431 52.9693 39.2805 52.9693Z" fill="white"/>
<path d="M40.4912 32.9317V20.8196H36.7412V34.9141L46.4048 41.4995L48.5166 38.4006L40.4912 32.9317Z" fill="white"/>
</svg>
