<svg width="64" height="64" viewBox="0 0 64 64" fill="none" xmlns="http://www.w3.org/2000/svg">
<path d="M10.8112 22.625H3.46118V26.375H10.8112V22.625Z" fill="#0075FF"/>
<path d="M10.8112 37.625H3.46118V41.375H10.8112V37.625Z" fill="#0075FF"/>
<path d="M10.8112 30.125H0V33.875H10.8112V30.125Z" fill="#0075FF"/>
<path d="M39.2805 7.28052C25.6503 7.28052 14.5612 18.3696 14.5612 31.9999C14.5612 45.6301 25.6502 56.7193 39.2805 56.7193C52.9109 56.7193 64 45.6301 64 31.9999C64 18.3696 52.9109 7.28052 39.2805 7.28052ZM39.2805 52.9693C27.718 52.9693 18.3112 43.5624 18.3112 31.9999C18.3112 20.4374 27.718 11.0305 39.2805 11.0305C50.8431 11.0305 60.25 20.4374 60.25 31.9999C60.25 43.5624 50.8431 52.9693 39.2805 52.9693Z" fill="#0075FF"/>
<path d="M40.4912 32.9316V20.8195H36.7412V34.914L46.4047 41.4994L48.5166 38.4005L40.4912 32.9316Z" fill="#0075FF"/>
</svg>
