<svg width="50" height="50" viewBox="0 0 50 50" fill="none" xmlns="http://www.w3.org/2000/svg">
<path d="M36.0512 17.0673C36.8141 17.8303 36.8141 19.067 36.0512 19.8296L22.9485 32.9327C22.1855 33.6952 20.9492 33.6952 20.1862 32.9327L13.9488 26.6949C13.1859 25.9323 13.1859 24.6956 13.9488 23.933C14.7114 23.1701 15.9481 23.1701 16.7107 23.933L21.5672 28.7895L33.289 17.0673C34.0519 16.3048 35.2886 16.3048 36.0512 17.0673ZM50 25C50 38.8187 38.8168 50 25 50C11.1813 50 0 38.8168 0 25C0 11.1813 11.1832 0 25 0C38.8187 0 50 11.1832 50 25ZM46.0938 25C46.0938 13.3404 36.6581 3.90625 25 3.90625C13.3404 3.90625 3.90625 13.3419 3.90625 25C3.90625 36.6596 13.3419 46.0938 25 46.0938C36.6596 46.0938 46.0938 36.6581 46.0938 25Z" fill="#0075FF"/>
</svg>
