<svg width="54" height="48" viewBox="0 0 54 48" fill="none" xmlns="http://www.w3.org/2000/svg">
<path d="M53.8683 15.9852L47.4348 1.21965C47.1833 0.642634 46.6138 0.269592 45.9844 0.269592H8.01569C7.38625 0.269592 6.81672 0.642634 6.56539 1.21965L0.131811 15.9852C-0.110766 16.5422 -0.013208 17.1889 0.383143 17.6492L25.8011 47.1804C26.1016 47.5296 26.5393 47.7304 27.0001 47.7304C27.4609 47.7304 27.8986 47.5296 28.1992 47.1804L53.6171 17.6492C54.0132 17.1889 54.1109 16.5422 53.8683 15.9852ZM34.322 18.1992L27 40.9786L19.6781 18.1992H34.322ZM20.4056 15.0352L27 4.77721L33.5944 15.0352H20.4056ZM29.8978 3.43365H43.0866L36.4922 13.6916L29.8978 3.43365ZM17.5079 13.6916L10.9134 3.43365H24.1023L17.5079 13.6916ZM23.1038 39.1964L5.03114 18.1992H16.3547L23.1038 39.1964ZM37.6454 18.1992H48.9689L30.8963 39.1964L37.6454 18.1992ZM39.3899 15.0352L45.7156 5.19529L50.0029 15.0352H39.3899ZM8.28453 5.19529L14.6101 15.0352H3.99713L8.28453 5.19529Z" fill="#0075FF"/>
</svg>
