<svg width="32" height="33" viewBox="0 0 32 33" fill="none" xmlns="http://www.w3.org/2000/svg">
<circle cx="16" cy="16.126" r="15" stroke="white" stroke-width="2"/>
<path d="M16.1258 12.5322C14.1258 12.5322 12.5321 14.1572 12.5321 16.126C12.5321 18.126 14.1258 19.7197 16.1258 19.7197C18.0946 19.7197 19.7196 18.126 19.7196 16.126C19.7196 14.1572 18.0946 12.5322 16.1258 12.5322ZM16.1258 18.4697C14.8446 18.4697 13.7821 17.4385 13.7821 16.126C13.7821 14.8447 14.8133 13.8135 16.1258 13.8135C17.4071 13.8135 18.4383 14.8447 18.4383 16.126C18.4383 17.4385 17.4071 18.4697 16.1258 18.4697ZM20.6883 12.4072C20.6883 11.9385 20.3133 11.5635 19.8446 11.5635C19.3758 11.5635 19.0008 11.9385 19.0008 12.4072C19.0008 12.876 19.3758 13.251 19.8446 13.251C20.3133 13.251 20.6883 12.876 20.6883 12.4072ZM23.0633 13.251C23.0008 12.126 22.7508 11.126 21.9383 10.3135C21.1258 9.50098 20.1258 9.25098 19.0008 9.18848C17.8446 9.12598 14.3758 9.12598 13.2196 9.18848C12.0946 9.25098 11.1258 9.50098 10.2821 10.3135C9.4696 11.126 9.2196 12.126 9.1571 13.251C9.0946 14.4072 9.0946 17.876 9.1571 19.0322C9.2196 20.1572 9.4696 21.126 10.2821 21.9697C11.1258 22.7822 12.0946 23.0322 13.2196 23.0947C14.3758 23.1572 17.8446 23.1572 19.0008 23.0947C20.1258 23.0322 21.1258 22.7822 21.9383 21.9697C22.7508 21.126 23.0008 20.1572 23.0633 19.0322C23.1258 17.876 23.1258 14.4072 23.0633 13.251ZM21.5633 20.251C21.3446 20.876 20.8446 21.3447 20.2508 21.5947C19.3133 21.9697 17.1258 21.876 16.1258 21.876C15.0946 21.876 12.9071 21.9697 12.0008 21.5947C11.3758 21.3447 10.9071 20.876 10.6571 20.251C10.2821 19.3447 10.3758 17.1572 10.3758 16.126C10.3758 15.126 10.2821 12.9385 10.6571 12.001C10.9071 11.4072 11.3758 10.9385 12.0008 10.6885C12.9071 10.3135 15.0946 10.4072 16.1258 10.4072C17.1258 10.4072 19.3133 10.3135 20.2508 10.6885C20.8446 10.9072 21.3133 11.4072 21.5633 12.001C21.9383 12.9385 21.8446 15.126 21.8446 16.126C21.8446 17.1572 21.9383 19.3447 21.5633 20.251Z" fill="white"/>
</svg>
