<svg width="48" height="46" viewBox="0 0 48 46" fill="none" xmlns="http://www.w3.org/2000/svg">
<g clip-path="url(#clip0)">
<path d="M44.1512 16.9889L39.326 5.91472C39.1374 5.48196 38.7103 5.20218 38.2382 5.20218H9.76167C9.2896 5.20218 8.86245 5.48196 8.67395 5.91472L3.84877 16.9889C3.66683 17.4067 3.74 17.8916 4.03727 18.2369L23.1007 40.3853C23.3261 40.6472 23.6544 40.7978 24 40.7978C24.3456 40.7978 24.6739 40.6472 24.8993 40.3853L43.9627 18.2369C44.2598 17.8916 44.3331 17.4067 44.1512 16.9889ZM29.4914 18.6494L23.9999 35.734L18.5085 18.6494H29.4914ZM19.0541 16.2764L23.9999 8.58289L28.9457 16.2764H19.0541ZM26.1732 7.57522H36.0649L31.119 15.2687L26.1732 7.57522ZM16.8808 15.2687L11.935 7.57522H21.8266L16.8808 15.2687ZM21.0778 34.3973L7.52326 18.6494H16.0159L21.0778 34.3973ZM31.9839 18.6494H40.4766L26.9222 34.3973L31.9839 18.6494ZM33.2924 16.2764L38.0366 8.89645L41.2521 16.2764H33.2924ZM9.9633 8.89645L14.7075 16.2764H6.74775L9.9633 8.89645Z" fill="#FA3F3F"/>
</g>
<defs>
<clipPath id="clip0">
<rect width="48" height="46" rx="4" fill="white"/>
</clipPath>
</defs>
</svg>
