<svg width="32" height="33" viewBox="0 0 32 33" fill="none" xmlns="http://www.w3.org/2000/svg">
<circle cx="16" cy="16.126" r="15" stroke="white" stroke-width="2"/>
<path d="M24.0565 11.8135C24.1503 11.4385 24.0565 11.126 23.494 11.126H21.6503C21.1815 11.126 20.9628 11.376 20.8378 11.6572C20.8378 11.6572 19.9003 13.9385 18.5878 15.4385C18.1503 15.8447 17.9628 16.001 17.7128 16.001C17.619 16.001 17.4315 15.8447 17.4315 15.4697V11.8135C17.4315 11.3447 17.3065 11.126 16.9003 11.126H14.0253C13.7128 11.126 13.5565 11.3447 13.5565 11.5635C13.5565 12.001 14.2128 12.0947 14.2753 13.3447V16.0635C14.2753 16.6572 14.1815 16.7822 13.9315 16.7822C13.3065 16.7822 11.8065 14.4697 10.9003 11.8447C10.7128 11.3447 10.5253 11.126 10.0565 11.126H8.21276C7.71276 11.126 7.58776 11.376 7.58776 11.6572C7.58776 12.1572 8.21276 14.5635 10.494 17.7822C12.0253 19.9697 14.1815 21.126 16.119 21.126C17.2753 21.126 17.4315 20.876 17.4315 20.4385C17.4315 18.3447 17.3378 18.126 17.9003 18.126C18.1815 18.126 18.6503 18.2822 19.744 19.3447C20.994 20.5947 21.2128 21.126 21.9003 21.126H23.744C24.2753 21.126 24.5253 20.876 24.369 20.3447C24.0253 19.2822 21.6815 17.0322 21.5565 16.876C21.2753 16.5322 21.369 16.376 21.5565 16.0635C21.5565 16.0635 23.8065 12.876 24.0565 11.8135Z" fill="white"/>
</svg>
