<svg width="64" height="64" viewBox="0 0 64 64" fill="none" xmlns="http://www.w3.org/2000/svg">
<path d="M44.7617 39.9595C45.6355 39.9595 46.3438 39.2512 46.3438 38.3774C46.3438 37.5037 45.6355 36.7954 44.7617 36.7954C43.888 36.7954 43.1797 37.5037 43.1797 38.3774C43.1797 39.2512 43.888 39.9595 44.7617 39.9595Z" fill="white"/>
<path d="M55.8359 30.7395V22.5572C55.8359 21.6835 55.1276 20.9752 54.2539 20.9752H52.9807C52.5563 19.8091 49.2301 10.6708 48.7173 9.26161C48.419 8.4417 47.5129 8.01813 46.6924 8.31503L29.1928 14.6471H9.74609C7.1291 14.6471 5 16.7762 5 19.3931V51.0338C5 53.6508 7.1291 55.7799 9.74609 55.7799H54.2539C55.1276 55.7799 55.8359 55.0715 55.8359 54.1978V46.0156C57.6773 45.3625 59 43.604 59 41.5416V35.2135C59 33.151 57.6773 31.3925 55.8359 30.7395ZM40.479 13.9281C41.282 15.2484 42.4553 16.3038 43.8877 16.9717C45.2623 17.6126 46.8059 17.8671 48.3951 17.6273L49.6136 20.9751H21.0031L40.479 13.9281ZM47.2752 14.5507C46.5757 14.5577 45.8777 14.4086 45.2249 14.1041C44.5693 13.7985 44.0046 13.3571 43.5595 12.8135L46.2842 11.8276L47.2752 14.5507ZM9.74609 17.8111H20.4483L11.7038 20.9752H9.74609C8.87376 20.9752 8.16406 20.2655 8.16406 19.3931C8.16406 18.5208 8.87376 17.8111 9.74609 17.8111ZM9.74609 52.6158C8.87376 52.6158 8.16406 51.9061 8.16406 51.0338V23.8671C8.65924 24.0427 9.19154 24.1392 9.74609 24.1392H52.6719V30.4674H44.7617C40.4001 30.4674 36.8516 34.0159 36.8516 38.3775C36.8516 42.7392 40.4001 46.2877 44.7617 46.2877H52.6719V52.6158H9.74609ZM55.8359 41.5416C55.8359 42.4139 55.1262 43.1236 54.2539 43.1236H44.7617C42.1447 43.1236 40.0156 40.9945 40.0156 38.3775C40.0156 35.7605 42.1447 33.6314 44.7617 33.6314H54.2539C55.1262 33.6314 55.8359 34.3411 55.8359 35.2135V41.5416Z" fill="white"/>
<path d="M25.8085 38.0271C24.9335 37.2328 23.7612 36.7954 22.5078 36.7954C21.6947 36.7954 20.9258 35.924 20.9258 35.0022C20.9258 34.4089 21.3395 33.8503 21.9798 33.5791C22.3778 33.4105 23.4271 33.138 24.5711 34.2464C25.1986 34.8543 26.2002 34.8385 26.8081 34.211C27.416 33.5836 27.4002 32.582 26.7728 31.974C25.9777 31.2038 25.0533 30.6835 24.09 30.4324V28.8855C24.09 28.0118 23.3816 27.3035 22.5079 27.3035C21.6342 27.3035 20.9259 28.0118 20.9259 28.8855V30.5937C20.8657 30.6166 20.8057 30.6405 20.746 30.6658C18.9331 31.4332 17.7617 33.1355 17.7617 35.0021C17.7617 37.6893 19.9351 39.9594 22.5078 39.9594C23.2698 39.9594 24.0899 40.3883 24.0899 41.3302C24.0899 42.0038 23.6837 42.6043 23.0793 42.8245C22.3038 43.1067 21.3839 42.7027 20.5552 41.716C19.9932 41.047 18.9953 40.9601 18.3262 41.522C17.6572 42.084 17.5703 43.0819 18.1322 43.7509C18.9625 44.7395 19.9219 45.4261 20.9257 45.7867V47.8696C20.9257 48.7433 21.634 49.4516 22.5077 49.4516C23.3814 49.4516 24.0897 48.7433 24.0897 47.8696V45.8221C24.1138 45.8138 24.1381 45.8063 24.1621 45.7975C26.0114 45.124 27.2539 43.3287 27.2539 41.3302C27.2539 40.0463 26.7406 38.8732 25.8085 38.0271Z" fill="white"/>
</svg>
