<svg width="65" height="64" viewBox="0 0 65 64" fill="none" xmlns="http://www.w3.org/2000/svg">
<mask id="path-1-outside-1" maskUnits="userSpaceOnUse" x="12.8462" y="0.735107" width="39" height="62" fill="black">
<rect fill="white" x="12.8462" y="0.735107" width="39" height="62"/>
<path fill-rule="evenodd" clip-rule="evenodd" d="M29.7446 1.73554C23.2444 1.73554 17.9579 7.02177 17.9579 13.5223C17.9579 18.4586 21.0104 22.6884 25.3243 24.4409L25.3182 22.7416C21.8833 21.0928 19.5117 17.5939 19.5117 13.522C19.5117 7.86127 24.084 3.28888 29.7448 3.28888C35.4057 3.28888 39.978 7.86114 39.978 13.522C39.978 17.6144 37.5822 21.1278 34.1193 22.7659V24.4578C38.4575 22.7167 41.5318 18.476 41.5318 13.5218C41.5318 7.02165 36.2455 1.73511 29.745 1.73511L29.7446 1.73554ZM29.7337 12.9263C27.7008 12.9263 25.9921 14.5067 25.9978 16.4983L26.0585 37.2182L19.5309 31.0148C18.8858 30.4019 18.0519 30.0903 17.2285 30.0911C16.4051 30.092 15.5927 30.405 14.9891 31.0403L14.6396 31.408C14.034 32.0453 13.7907 32.8873 13.8567 33.6777C13.9227 34.468 14.2621 35.2189 14.7706 35.8636L25.6637 49.6738C25.6689 49.6806 25.7053 49.7293 25.7548 49.8024C25.8075 49.8804 25.8655 50.0008 25.8446 49.9444C25.8355 49.9198 25.8774 50.0979 25.8931 50.2333C25.9072 50.3545 25.9126 50.4322 25.9138 50.4518V52.8247H24.0993C23.4828 52.8247 23.0001 53.2236 22.7241 53.6694C22.4481 54.1153 22.3126 54.6518 22.3126 55.2327V59.8571C22.3126 60.438 22.4481 60.9745 22.7241 61.4203C23.0001 61.8662 23.4828 62.2651 24.0993 62.2651H49.3668C49.9832 62.2651 50.466 61.8662 50.7419 61.4203C51.0179 60.9745 51.1534 60.438 51.1534 59.8571V55.2327C51.1534 54.6518 51.0179 54.1153 50.7419 53.6694C50.4659 53.2236 49.9832 52.8247 49.3668 52.8247H47.6675C47.6406 52.1892 47.58 50.5524 47.727 49.743C47.8353 49.1465 47.9186 49.0626 48.1506 48.6045C48.3825 48.1464 48.7013 47.438 49.0997 45.9634C49.5625 44.2507 49.6193 40.8049 49.6265 37.612C49.6336 34.4188 49.5427 31.5906 49.5427 31.5906C49.6611 29.6043 47.9663 28.027 46.0617 28.027C45.1857 28.027 44.39 28.3642 43.7798 28.9131C43.2231 27.7146 42.0605 26.8691 40.6896 26.8691C39.8249 26.8691 39.0429 27.2064 38.443 27.7551C37.8844 26.5636 36.7263 25.7245 35.3602 25.7245C34.6578 25.7245 34.0107 25.9472 33.4704 26.3241V16.4968C33.4704 14.5077 31.7662 12.9272 29.7333 12.9272L29.7337 12.9263ZM29.7337 14.4799C30.9796 14.4799 31.9172 15.3904 31.9172 16.4959V33.3995C31.9159 33.5024 31.935 33.6044 31.9735 33.6998C32.0119 33.7952 32.069 33.882 32.1412 33.9552C32.2135 34.0284 32.2995 34.0865 32.3944 34.1261C32.4893 34.1658 32.5912 34.1862 32.694 34.1862C32.7968 34.1862 32.8987 34.1658 32.9936 34.1261C33.0884 34.0865 33.1745 34.0284 33.2468 33.9552C33.319 33.882 33.376 33.7952 33.4145 33.6998C33.453 33.6044 33.4721 33.5024 33.4708 33.3995V29.3554C33.4708 28.1628 34.3299 27.2774 35.3606 27.2774C36.3913 27.2774 37.2492 28.1628 37.2492 29.3554V30.3664C37.2491 30.3883 37.2499 30.4102 37.2516 30.432C37.2512 30.4552 37.2479 30.4778 37.2479 30.5012V34.5259C37.2466 34.6288 37.2658 34.7309 37.3042 34.8262C37.3427 34.9216 37.3997 35.0084 37.4719 35.0816C37.5442 35.1548 37.6303 35.2129 37.7252 35.2525C37.8201 35.2922 37.9219 35.3126 38.0247 35.3126C38.1276 35.3126 38.2294 35.2922 38.3243 35.2525C38.4192 35.2129 38.5052 35.1548 38.5775 35.0816C38.6498 35.0084 38.7068 34.9216 38.7452 34.8262C38.7837 34.7309 38.8028 34.6288 38.8015 34.5259V30.5012C38.8015 29.3086 39.6594 28.422 40.6901 28.422C41.7208 28.422 42.5799 29.3086 42.5799 30.5012V31.5583C42.5801 31.5697 42.5805 31.581 42.5811 31.5923C42.5811 31.5997 42.5799 31.6068 42.5799 31.6142V35.5758C42.5786 35.6787 42.5977 35.7807 42.6362 35.8761C42.6746 35.9715 42.7316 36.0583 42.8039 36.1315C42.8762 36.2047 42.9622 36.2628 43.0571 36.3024C43.152 36.3421 43.2538 36.3625 43.3567 36.3625C43.4595 36.3625 43.5613 36.3421 43.6562 36.3024C43.7511 36.2628 43.8372 36.2047 43.9095 36.1315C43.9817 36.0583 44.0387 35.9715 44.0772 35.8761C44.1156 35.7807 44.1348 35.6787 44.1335 35.5758V31.6142C44.1335 30.4583 44.9966 29.58 46.0621 29.58C47.1251 29.58 48.0871 30.4764 47.9931 31.5463C47.9905 31.5769 47.9897 31.6077 47.9907 31.6385C47.9907 31.6385 48.0803 34.4471 48.0733 37.6089C48.0662 40.7707 47.9147 44.3974 47.6011 45.5576C47.2232 46.9562 46.971 47.4942 46.7648 47.9014C46.5587 48.3085 46.3364 48.7095 46.1992 49.4647C46.0096 50.5086 46.0545 52.0091 46.0973 52.8243H27.4679V50.4332C27.468 50.4182 27.4675 50.4032 27.4667 50.3882C27.4667 50.3882 27.4589 50.2384 27.4376 50.0545C27.4162 49.8706 27.3996 49.6684 27.3016 49.4039C27.2151 49.1705 27.1233 49.0503 27.0431 48.9317C26.9629 48.8132 26.8914 48.7206 26.8914 48.7206C26.889 48.7177 26.8866 48.7149 26.8841 48.7121L15.991 34.9019C15.6423 34.4599 15.4398 33.967 15.4047 33.5474C15.3697 33.1278 15.4662 32.7928 15.7652 32.4781L16.116 32.1103C16.7178 31.477 17.7443 31.4597 18.4609 32.1407L25.4328 38.7639C25.4688 38.8257 25.5035 38.8886 25.5614 38.9605C25.7196 39.1569 26.0539 39.4595 26.5506 39.4351C26.813 39.4223 27.0435 39.2815 27.1696 39.1523C27.2958 39.0232 27.3563 38.9042 27.4027 38.7991C27.4954 38.5889 27.5284 38.4101 27.5556 38.242C27.61 37.9057 27.6127 37.6036 27.6127 37.6036C27.6131 37.5979 27.6136 37.5923 27.6139 37.5866L27.552 16.4933C27.5488 15.3904 28.4883 14.4797 29.7343 14.4797L29.7337 14.4799ZM24.0995 54.3778H49.367C49.31 54.3778 49.3326 54.3432 49.4216 54.4871C49.5107 54.6309 49.6 54.9095 49.6 55.2323V59.8566C49.6 60.1795 49.5107 60.458 49.4216 60.6019C49.3326 60.7457 49.31 60.7111 49.367 60.7111H24.0995C24.1565 60.7111 24.1351 60.7457 24.0461 60.6019C23.957 60.458 23.8665 60.1794 23.8665 59.8566V55.2323C23.8665 54.9095 23.957 54.6309 24.0461 54.4871C24.1351 54.3432 24.1565 54.3778 24.0995 54.3778Z"/>
</mask>
<path fill-rule="evenodd" clip-rule="evenodd" d="M29.7446 1.73554C23.2444 1.73554 17.9579 7.02177 17.9579 13.5223C17.9579 18.4586 21.0104 22.6884 25.3243 24.4409L25.3182 22.7416C21.8833 21.0928 19.5117 17.5939 19.5117 13.522C19.5117 7.86127 24.084 3.28888 29.7448 3.28888C35.4057 3.28888 39.978 7.86114 39.978 13.522C39.978 17.6144 37.5822 21.1278 34.1193 22.7659V24.4578C38.4575 22.7167 41.5318 18.476 41.5318 13.5218C41.5318 7.02165 36.2455 1.73511 29.745 1.73511L29.7446 1.73554ZM29.7337 12.9263C27.7008 12.9263 25.9921 14.5067 25.9978 16.4983L26.0585 37.2182L19.5309 31.0148C18.8858 30.4019 18.0519 30.0903 17.2285 30.0911C16.4051 30.092 15.5927 30.405 14.9891 31.0403L14.6396 31.408C14.034 32.0453 13.7907 32.8873 13.8567 33.6777C13.9227 34.468 14.2621 35.2189 14.7706 35.8636L25.6637 49.6738C25.6689 49.6806 25.7053 49.7293 25.7548 49.8024C25.8075 49.8804 25.8655 50.0008 25.8446 49.9444C25.8355 49.9198 25.8774 50.0979 25.8931 50.2333C25.9072 50.3545 25.9126 50.4322 25.9138 50.4518V52.8247H24.0993C23.4828 52.8247 23.0001 53.2236 22.7241 53.6694C22.4481 54.1153 22.3126 54.6518 22.3126 55.2327V59.8571C22.3126 60.438 22.4481 60.9745 22.7241 61.4203C23.0001 61.8662 23.4828 62.2651 24.0993 62.2651H49.3668C49.9832 62.2651 50.466 61.8662 50.7419 61.4203C51.0179 60.9745 51.1534 60.438 51.1534 59.8571V55.2327C51.1534 54.6518 51.0179 54.1153 50.7419 53.6694C50.4659 53.2236 49.9832 52.8247 49.3668 52.8247H47.6675C47.6406 52.1892 47.58 50.5524 47.727 49.743C47.8353 49.1465 47.9186 49.0626 48.1506 48.6045C48.3825 48.1464 48.7013 47.438 49.0997 45.9634C49.5625 44.2507 49.6193 40.8049 49.6265 37.612C49.6336 34.4188 49.5427 31.5906 49.5427 31.5906C49.6611 29.6043 47.9663 28.027 46.0617 28.027C45.1857 28.027 44.39 28.3642 43.7798 28.9131C43.2231 27.7146 42.0605 26.8691 40.6896 26.8691C39.8249 26.8691 39.0429 27.2064 38.443 27.7551C37.8844 26.5636 36.7263 25.7245 35.3602 25.7245C34.6578 25.7245 34.0107 25.9472 33.4704 26.3241V16.4968C33.4704 14.5077 31.7662 12.9272 29.7333 12.9272L29.7337 12.9263ZM29.7337 14.4799C30.9796 14.4799 31.9172 15.3904 31.9172 16.4959V33.3995C31.9159 33.5024 31.935 33.6044 31.9735 33.6998C32.0119 33.7952 32.069 33.882 32.1412 33.9552C32.2135 34.0284 32.2995 34.0865 32.3944 34.1261C32.4893 34.1658 32.5912 34.1862 32.694 34.1862C32.7968 34.1862 32.8987 34.1658 32.9936 34.1261C33.0884 34.0865 33.1745 34.0284 33.2468 33.9552C33.319 33.882 33.376 33.7952 33.4145 33.6998C33.453 33.6044 33.4721 33.5024 33.4708 33.3995V29.3554C33.4708 28.1628 34.3299 27.2774 35.3606 27.2774C36.3913 27.2774 37.2492 28.1628 37.2492 29.3554V30.3664C37.2491 30.3883 37.2499 30.4102 37.2516 30.432C37.2512 30.4552 37.2479 30.4778 37.2479 30.5012V34.5259C37.2466 34.6288 37.2658 34.7309 37.3042 34.8262C37.3427 34.9216 37.3997 35.0084 37.4719 35.0816C37.5442 35.1548 37.6303 35.2129 37.7252 35.2525C37.8201 35.2922 37.9219 35.3126 38.0247 35.3126C38.1276 35.3126 38.2294 35.2922 38.3243 35.2525C38.4192 35.2129 38.5052 35.1548 38.5775 35.0816C38.6498 35.0084 38.7068 34.9216 38.7452 34.8262C38.7837 34.7309 38.8028 34.6288 38.8015 34.5259V30.5012C38.8015 29.3086 39.6594 28.422 40.6901 28.422C41.7208 28.422 42.5799 29.3086 42.5799 30.5012V31.5583C42.5801 31.5697 42.5805 31.581 42.5811 31.5923C42.5811 31.5997 42.5799 31.6068 42.5799 31.6142V35.5758C42.5786 35.6787 42.5977 35.7807 42.6362 35.8761C42.6746 35.9715 42.7316 36.0583 42.8039 36.1315C42.8762 36.2047 42.9622 36.2628 43.0571 36.3024C43.152 36.3421 43.2538 36.3625 43.3567 36.3625C43.4595 36.3625 43.5613 36.3421 43.6562 36.3024C43.7511 36.2628 43.8372 36.2047 43.9095 36.1315C43.9817 36.0583 44.0387 35.9715 44.0772 35.8761C44.1156 35.7807 44.1348 35.6787 44.1335 35.5758V31.6142C44.1335 30.4583 44.9966 29.58 46.0621 29.58C47.1251 29.58 48.0871 30.4764 47.9931 31.5463C47.9905 31.5769 47.9897 31.6077 47.9907 31.6385C47.9907 31.6385 48.0803 34.4471 48.0733 37.6089C48.0662 40.7707 47.9147 44.3974 47.6011 45.5576C47.2232 46.9562 46.971 47.4942 46.7648 47.9014C46.5587 48.3085 46.3364 48.7095 46.1992 49.4647C46.0096 50.5086 46.0545 52.0091 46.0973 52.8243H27.4679V50.4332C27.468 50.4182 27.4675 50.4032 27.4667 50.3882C27.4667 50.3882 27.4589 50.2384 27.4376 50.0545C27.4162 49.8706 27.3996 49.6684 27.3016 49.4039C27.2151 49.1705 27.1233 49.0503 27.0431 48.9317C26.9629 48.8132 26.8914 48.7206 26.8914 48.7206C26.889 48.7177 26.8866 48.7149 26.8841 48.7121L15.991 34.9019C15.6423 34.4599 15.4398 33.967 15.4047 33.5474C15.3697 33.1278 15.4662 32.7928 15.7652 32.4781L16.116 32.1103C16.7178 31.477 17.7443 31.4597 18.4609 32.1407L25.4328 38.7639C25.4688 38.8257 25.5035 38.8886 25.5614 38.9605C25.7196 39.1569 26.0539 39.4595 26.5506 39.4351C26.813 39.4223 27.0435 39.2815 27.1696 39.1523C27.2958 39.0232 27.3563 38.9042 27.4027 38.7991C27.4954 38.5889 27.5284 38.4101 27.5556 38.242C27.61 37.9057 27.6127 37.6036 27.6127 37.6036C27.6131 37.5979 27.6136 37.5923 27.6139 37.5866L27.552 16.4933C27.5488 15.3904 28.4883 14.4797 29.7343 14.4797L29.7337 14.4799ZM24.0995 54.3778H49.367C49.31 54.3778 49.3326 54.3432 49.4216 54.4871C49.5107 54.6309 49.6 54.9095 49.6 55.2323V59.8566C49.6 60.1795 49.5107 60.458 49.4216 60.6019C49.3326 60.7457 49.31 60.7111 49.367 60.7111H24.0995C24.1565 60.7111 24.1351 60.7457 24.0461 60.6019C23.957 60.458 23.8665 60.1794 23.8665 59.8566V55.2323C23.8665 54.9095 23.957 54.6309 24.0461 54.4871C24.1351 54.3432 24.1565 54.3778 24.0995 54.3778Z" fill="white"/>
<path fill-rule="evenodd" clip-rule="evenodd" d="M29.7446 1.73554C23.2444 1.73554 17.9579 7.02177 17.9579 13.5223C17.9579 18.4586 21.0104 22.6884 25.3243 24.4409L25.3182 22.7416C21.8833 21.0928 19.5117 17.5939 19.5117 13.522C19.5117 7.86127 24.084 3.28888 29.7448 3.28888C35.4057 3.28888 39.978 7.86114 39.978 13.522C39.978 17.6144 37.5822 21.1278 34.1193 22.7659V24.4578C38.4575 22.7167 41.5318 18.476 41.5318 13.5218C41.5318 7.02165 36.2455 1.73511 29.745 1.73511L29.7446 1.73554ZM29.7337 12.9263C27.7008 12.9263 25.9921 14.5067 25.9978 16.4983L26.0585 37.2182L19.5309 31.0148C18.8858 30.4019 18.0519 30.0903 17.2285 30.0911C16.4051 30.092 15.5927 30.405 14.9891 31.0403L14.6396 31.408C14.034 32.0453 13.7907 32.8873 13.8567 33.6777C13.9227 34.468 14.2621 35.2189 14.7706 35.8636L25.6637 49.6738C25.6689 49.6806 25.7053 49.7293 25.7548 49.8024C25.8075 49.8804 25.8655 50.0008 25.8446 49.9444C25.8355 49.9198 25.8774 50.0979 25.8931 50.2333C25.9072 50.3545 25.9126 50.4322 25.9138 50.4518V52.8247H24.0993C23.4828 52.8247 23.0001 53.2236 22.7241 53.6694C22.4481 54.1153 22.3126 54.6518 22.3126 55.2327V59.8571C22.3126 60.438 22.4481 60.9745 22.7241 61.4203C23.0001 61.8662 23.4828 62.2651 24.0993 62.2651H49.3668C49.9832 62.2651 50.466 61.8662 50.7419 61.4203C51.0179 60.9745 51.1534 60.438 51.1534 59.8571V55.2327C51.1534 54.6518 51.0179 54.1153 50.7419 53.6694C50.4659 53.2236 49.9832 52.8247 49.3668 52.8247H47.6675C47.6406 52.1892 47.58 50.5524 47.727 49.743C47.8353 49.1465 47.9186 49.0626 48.1506 48.6045C48.3825 48.1464 48.7013 47.438 49.0997 45.9634C49.5625 44.2507 49.6193 40.8049 49.6265 37.612C49.6336 34.4188 49.5427 31.5906 49.5427 31.5906C49.6611 29.6043 47.9663 28.027 46.0617 28.027C45.1857 28.027 44.39 28.3642 43.7798 28.9131C43.2231 27.7146 42.0605 26.8691 40.6896 26.8691C39.8249 26.8691 39.0429 27.2064 38.443 27.7551C37.8844 26.5636 36.7263 25.7245 35.3602 25.7245C34.6578 25.7245 34.0107 25.9472 33.4704 26.3241V16.4968C33.4704 14.5077 31.7662 12.9272 29.7333 12.9272L29.7337 12.9263ZM29.7337 14.4799C30.9796 14.4799 31.9172 15.3904 31.9172 16.4959V33.3995C31.9159 33.5024 31.935 33.6044 31.9735 33.6998C32.0119 33.7952 32.069 33.882 32.1412 33.9552C32.2135 34.0284 32.2995 34.0865 32.3944 34.1261C32.4893 34.1658 32.5912 34.1862 32.694 34.1862C32.7968 34.1862 32.8987 34.1658 32.9936 34.1261C33.0884 34.0865 33.1745 34.0284 33.2468 33.9552C33.319 33.882 33.376 33.7952 33.4145 33.6998C33.453 33.6044 33.4721 33.5024 33.4708 33.3995V29.3554C33.4708 28.1628 34.3299 27.2774 35.3606 27.2774C36.3913 27.2774 37.2492 28.1628 37.2492 29.3554V30.3664C37.2491 30.3883 37.2499 30.4102 37.2516 30.432C37.2512 30.4552 37.2479 30.4778 37.2479 30.5012V34.5259C37.2466 34.6288 37.2658 34.7309 37.3042 34.8262C37.3427 34.9216 37.3997 35.0084 37.4719 35.0816C37.5442 35.1548 37.6303 35.2129 37.7252 35.2525C37.8201 35.2922 37.9219 35.3126 38.0247 35.3126C38.1276 35.3126 38.2294 35.2922 38.3243 35.2525C38.4192 35.2129 38.5052 35.1548 38.5775 35.0816C38.6498 35.0084 38.7068 34.9216 38.7452 34.8262C38.7837 34.7309 38.8028 34.6288 38.8015 34.5259V30.5012C38.8015 29.3086 39.6594 28.422 40.6901 28.422C41.7208 28.422 42.5799 29.3086 42.5799 30.5012V31.5583C42.5801 31.5697 42.5805 31.581 42.5811 31.5923C42.5811 31.5997 42.5799 31.6068 42.5799 31.6142V35.5758C42.5786 35.6787 42.5977 35.7807 42.6362 35.8761C42.6746 35.9715 42.7316 36.0583 42.8039 36.1315C42.8762 36.2047 42.9622 36.2628 43.0571 36.3024C43.152 36.3421 43.2538 36.3625 43.3567 36.3625C43.4595 36.3625 43.5613 36.3421 43.6562 36.3024C43.7511 36.2628 43.8372 36.2047 43.9095 36.1315C43.9817 36.0583 44.0387 35.9715 44.0772 35.8761C44.1156 35.7807 44.1348 35.6787 44.1335 35.5758V31.6142C44.1335 30.4583 44.9966 29.58 46.0621 29.58C47.1251 29.58 48.0871 30.4764 47.9931 31.5463C47.9905 31.5769 47.9897 31.6077 47.9907 31.6385C47.9907 31.6385 48.0803 34.4471 48.0733 37.6089C48.0662 40.7707 47.9147 44.3974 47.6011 45.5576C47.2232 46.9562 46.971 47.4942 46.7648 47.9014C46.5587 48.3085 46.3364 48.7095 46.1992 49.4647C46.0096 50.5086 46.0545 52.0091 46.0973 52.8243H27.4679V50.4332C27.468 50.4182 27.4675 50.4032 27.4667 50.3882C27.4667 50.3882 27.4589 50.2384 27.4376 50.0545C27.4162 49.8706 27.3996 49.6684 27.3016 49.4039C27.2151 49.1705 27.1233 49.0503 27.0431 48.9317C26.9629 48.8132 26.8914 48.7206 26.8914 48.7206C26.889 48.7177 26.8866 48.7149 26.8841 48.7121L15.991 34.9019C15.6423 34.4599 15.4398 33.967 15.4047 33.5474C15.3697 33.1278 15.4662 32.7928 15.7652 32.4781L16.116 32.1103C16.7178 31.477 17.7443 31.4597 18.4609 32.1407L25.4328 38.7639C25.4688 38.8257 25.5035 38.8886 25.5614 38.9605C25.7196 39.1569 26.0539 39.4595 26.5506 39.4351C26.813 39.4223 27.0435 39.2815 27.1696 39.1523C27.2958 39.0232 27.3563 38.9042 27.4027 38.7991C27.4954 38.5889 27.5284 38.4101 27.5556 38.242C27.61 37.9057 27.6127 37.6036 27.6127 37.6036C27.6131 37.5979 27.6136 37.5923 27.6139 37.5866L27.552 16.4933C27.5488 15.3904 28.4883 14.4797 29.7343 14.4797L29.7337 14.4799ZM24.0995 54.3778H49.367C49.31 54.3778 49.3326 54.3432 49.4216 54.4871C49.5107 54.6309 49.6 54.9095 49.6 55.2323V59.8566C49.6 60.1795 49.5107 60.458 49.4216 60.6019C49.3326 60.7457 49.31 60.7111 49.367 60.7111H24.0995C24.1565 60.7111 24.1351 60.7457 24.0461 60.6019C23.957 60.458 23.8665 60.1794 23.8665 59.8566V55.2323C23.8665 54.9095 23.957 54.6309 24.0461 54.4871C24.1351 54.3432 24.1565 54.3778 24.0995 54.3778Z" stroke="white" stroke-width="0.6" mask="url(#path-1-outside-1)"/>
</svg>
