<svg width="65" height="64" viewBox="0 0 65 64" fill="none" xmlns="http://www.w3.org/2000/svg">
<path d="M53.9618 15.7127L32.7993 4.12736C32.6485 4.04479 32.4794 4.00102 32.3074 4.00002C32.1354 3.99901 31.9659 4.04079 31.8141 4.12159L10.0489 15.7063C9.88308 15.7946 9.74442 15.9262 9.64774 16.0871C9.55106 16.248 9.49999 16.4322 9.5 16.6198V29.6852C9.50026 35.8344 11.3184 41.8466 14.7263 46.9676C18.1342 52.0887 22.9801 56.0905 28.6562 58.4712L31.9658 59.8988C32.0961 59.9549 32.2365 59.9838 32.3784 59.9835C32.5202 59.9833 32.6606 59.9539 32.7906 59.8973L35.7297 58.6176C41.3046 56.1824 46.0487 52.1778 49.3821 47.0933C52.7155 42.0087 54.4939 36.0643 54.5 29.9865V16.6203C54.5 16.4347 54.45 16.2525 54.3553 16.0929C54.2606 15.9332 54.1247 15.8019 53.9618 15.7127ZM52.4276 29.9865C52.4216 35.6617 50.7608 41.2123 47.648 45.96C44.5353 50.7078 40.1054 54.447 34.8997 56.7209L32.3747 57.8203L29.4733 56.569L29.4659 56.5659C24.1647 54.3434 19.6385 50.6067 16.4552 45.8246C13.2719 41.0425 11.5733 35.4279 11.5724 29.6852V17.2411L32.2943 6.21096L52.4276 17.233V29.9865Z" fill="white" stroke="white"/>
<path d="M27.115 19.276V27.1124H19.2696C18.9918 27.1192 18.7277 27.2344 18.534 27.4334C18.3403 27.6325 18.2324 27.8994 18.2334 28.177V35.8064C18.2324 36.084 18.3403 36.3509 18.534 36.5499C18.7277 36.7489 18.9918 36.8642 19.2696 36.871H27.115V44.7074C27.1218 44.9849 27.2371 45.2487 27.4364 45.4422C27.6356 45.6357 27.9029 45.7435 28.1808 45.7424H35.8189C36.0968 45.7435 36.3641 45.6357 36.5633 45.4422C36.7626 45.2487 36.8779 44.9849 36.8847 44.7074V36.871H44.7301C45.0079 36.8642 45.272 36.7489 45.4657 36.5499C45.6594 36.3509 45.7673 36.084 45.7663 35.8064V28.177C45.7673 27.8994 45.6594 27.6325 45.4657 27.4334C45.272 27.2344 45.0079 27.1192 44.7301 27.1124H36.8847V19.276C36.8779 18.9985 36.7626 18.7347 36.5633 18.5412C36.3641 18.3477 36.0968 18.2399 35.8189 18.241H28.1808C27.9029 18.2399 27.6356 18.3477 27.4364 18.5412C27.2371 18.7347 27.1218 18.9985 27.115 19.276ZM29.1874 28.177V20.311H34.8124V28.177C34.8096 28.3098 34.8337 28.4417 34.8833 28.565C34.933 28.6882 35.007 28.8001 35.101 28.8941C35.195 28.988 35.3071 29.0619 35.4305 29.1115C35.5539 29.161 35.686 29.1852 35.8189 29.1824H43.6939V34.801H35.8189C35.686 34.7982 35.5539 34.8223 35.4305 34.8719C35.3071 34.9214 35.195 34.9954 35.101 35.0893C35.007 35.1832 34.933 35.2952 34.8833 35.4184C34.8337 35.5416 34.8096 35.6736 34.8124 35.8064V43.6724H29.1874V35.8064C29.1901 35.6736 29.166 35.5416 29.1164 35.4184C29.0668 35.2952 28.9927 35.1832 28.8987 35.0893C28.8047 34.9954 28.6926 34.9214 28.5692 34.8719C28.4458 34.8223 28.3137 34.7982 28.1808 34.801H20.3058V29.1824H28.1808C28.3137 29.1852 28.4458 29.161 28.5692 29.1115C28.6926 29.0619 28.8047 28.988 28.8987 28.8941C28.9927 28.8001 29.0668 28.6882 29.1164 28.565C29.166 28.4417 29.1901 28.3098 29.1874 28.177Z" fill="white" stroke="white"/>
</svg>
