<svg width="65" height="64" viewBox="0 0 65 64" fill="none" xmlns="http://www.w3.org/2000/svg">
<path d="M41.1596 33.7763L41.1598 33.7761L47.8918 27.2444C47.892 27.2442 47.8922 27.2441 47.8924 27.2439C47.8966 27.2396 47.8987 27.2373 47.8997 27.2362C47.8997 27.2359 47.8998 27.2355 47.8998 27.235C47.8999 27.2331 47.9 27.2294 47.8993 27.2234C47.8981 27.2214 47.8973 27.2204 47.897 27.2199C47.8963 27.2191 47.8958 27.2187 47.8949 27.2181C47.8936 27.2173 47.8913 27.216 47.8858 27.2138L47.8774 27.2106L38.5843 25.8632C38.5843 25.8632 38.5842 25.8632 38.5841 25.8632C37.7295 25.7417 36.9968 25.2078 36.6181 24.4431C36.618 24.4429 36.618 24.4428 36.6179 24.4426L32.4172 16.0799C32.4149 16.0754 32.4136 16.0731 32.4129 16.0721C32.4125 16.072 32.4119 16.0718 32.4112 16.0717C32.4093 16.0714 32.4062 16.071 32.4016 16.071C32.3969 16.071 32.3938 16.0714 32.3919 16.0717C32.3912 16.0718 32.3906 16.072 32.3902 16.0721C32.3895 16.0731 32.3883 16.0753 32.3861 16.0795C32.3861 16.0796 32.386 16.0798 32.3859 16.0799L28.2197 24.4655L41.1596 33.7763ZM41.1596 33.7763C40.5377 34.3823 40.2561 35.2443 40.4029 36.0834L41.9894 45.2943L41.9894 45.2956L41.9896 45.3035C41.9895 45.3078 41.9891 45.3102 41.9888 45.3115L41.9886 45.3122L41.9886 45.3123L41.9886 45.3123L41.9885 45.3124L41.9878 45.3132C41.9871 45.3139 41.9857 45.3153 41.9831 45.3171C41.9801 45.3192 41.9779 45.3204 41.9767 45.3209L41.9755 45.3214M41.1596 33.7763L16.94 27.2364M16.94 27.2364L16.9422 27.2361L26.2533 25.8861C26.2534 25.8861 26.2535 25.8861 26.2537 25.886C27.1083 25.7646 27.841 25.2305 28.2196 24.4657L16.94 27.2364ZM16.94 27.2364L16.9381 27.2451L16.9344 27.255C16.9344 27.255 16.9344 27.255 16.9344 27.255C16.9345 27.2553 16.9347 27.2555 16.9349 27.2558C16.9373 27.2587 16.9399 27.2615 16.9452 27.2667C16.9454 27.2669 16.9456 27.2671 16.9458 27.2673L23.6779 33.799L23.6781 33.7992C24.288 34.3933 24.5816 35.255 24.4348 36.1059C24.4348 36.1059 24.4348 36.1059 24.4348 36.106L22.8483 45.3171L22.8482 45.3185L22.8481 45.3264C22.8481 45.3307 22.8485 45.3331 22.8488 45.3344L22.849 45.3351L22.849 45.3352L22.8491 45.3352L22.8492 45.3353L22.8498 45.3361C22.8505 45.3368 22.8519 45.3381 22.8545 45.34C22.8576 45.3421 22.8597 45.3433 22.8609 45.3438L22.8621 45.3443C22.8621 45.3443 22.8621 45.3443 22.8622 45.3443L22.8644 45.3436C22.8663 45.3429 22.8681 45.3421 22.8723 45.34C22.8727 45.3398 22.8731 45.3396 22.8736 45.3394L31.1989 40.9958C31.571 40.7631 31.9894 40.6671 32.4131 40.6671C32.8281 40.6671 33.2435 40.7643 33.6338 40.9704C33.6339 40.9704 33.634 40.9705 33.6341 40.9705L41.9641 45.3165C41.9645 45.3167 41.9649 45.3169 41.9653 45.3171C41.9696 45.3193 41.9714 45.32 41.9733 45.3207L41.9755 45.3214M41.9755 45.3214L41.9752 45.3216L41.9754 45.3215L41.9755 45.3214ZM21.3216 47.4145L21.323 47.4154C21.785 47.7418 22.3216 47.912 22.8598 47.912C23.2752 47.912 23.69 47.8146 24.0907 47.6095L24.0917 47.6089L32.4223 43.2626C32.4224 43.2625 32.4226 43.2624 32.4228 43.2624C32.4267 43.2607 32.4339 43.2607 32.4379 43.2624C32.438 43.2624 32.4382 43.2625 32.4384 43.2626L40.768 47.6084C40.7682 47.6085 40.7684 47.6086 40.7686 47.6087C41.6601 48.0819 42.7225 47.9964 43.5275 47.4145L43.5287 47.4136C44.3327 46.8202 44.7369 45.8489 44.5658 44.8645L42.9774 35.6431L42.9775 35.6431L42.9767 35.639L42.9766 35.6376C42.9767 35.6366 42.977 35.6351 42.9776 35.6333C42.9779 35.6324 42.9782 35.6315 42.9786 35.6307C42.979 35.6298 42.9795 35.629 42.9799 35.6282C42.9806 35.6272 42.9811 35.6265 42.9813 35.6263C42.9814 35.6262 42.9814 35.6262 42.9814 35.6262L49.7134 29.0946L49.7138 29.0942C50.434 28.3904 50.6783 27.3698 50.3733 26.4238C50.0676 25.4757 49.2486 24.7964 48.2611 24.651L48.2608 24.651L38.9543 23.3016C38.9401 23.2981 38.9356 23.2913 38.9351 23.2905C38.9351 23.2904 38.9351 23.2904 38.9351 23.2904L34.7689 14.9047C34.7689 14.9047 34.7688 14.9047 34.7688 14.9046C34.3289 14.0179 33.4247 13.4599 32.4246 13.4599C31.4255 13.4599 30.5206 14.0055 30.0801 14.905C30.0801 14.9052 30.08 14.9053 30.0799 14.9054L25.914 23.2904C25.914 23.2904 25.914 23.2904 25.914 23.2905C25.9136 23.2913 25.9091 23.2981 25.8949 23.3016L16.5883 24.651L16.588 24.651C15.6008 24.7964 14.7819 25.4754 14.4761 26.4232C14.1589 27.3818 14.4156 28.4029 15.1361 29.0949C15.1361 29.095 15.1362 29.095 15.1363 29.0951L21.86 35.6187C21.8681 35.6302 21.8712 35.6366 21.8723 35.6397L21.8717 35.6431L20.2834 44.8645C20.1124 45.848 20.5157 46.8318 21.3216 47.4145Z" fill="white" stroke="white" stroke-width="0.3"/>
<path d="M31.3998 11.2301C31.3998 11.7829 31.8476 12.2268 32.4016 12.2268C32.9426 12.2268 33.4033 11.7842 33.4033 11.2301V4.76584C33.4033 4.21306 32.9555 3.76919 32.4016 3.76919C31.8476 3.76919 31.3998 4.21306 31.3998 4.76584V11.2301Z" fill="white" stroke="white" stroke-width="0.3"/>
<path d="M13.4048 25.4926L13.4051 25.4917C13.5548 24.9504 13.227 24.4131 12.7025 24.2661L12.7025 24.2661L12.7005 24.2655L6.41708 22.5954C6.4169 22.5954 6.41673 22.5953 6.41655 22.5953C5.87443 22.4474 5.33411 22.7714 5.18582 23.2941L5.18581 23.2941L5.18555 23.295C5.03582 23.8363 5.36366 24.3736 5.88814 24.5206L5.88814 24.5206L5.89011 24.5212L12.1735 26.1913C12.1737 26.1913 12.1739 26.1914 12.174 26.1914C12.7162 26.3393 13.2565 26.0153 13.4048 25.4926Z" fill="white" stroke="white" stroke-width="0.3"/>
<path d="M21.7245 18.7677L21.7242 18.7674L14.8529 11.1591L14.8528 11.1589L14.9641 11.0584C14.6533 10.7152 14.6763 10.1774 15.0331 9.85706L21.7245 18.7677ZM21.7245 18.7677C22.1018 19.1829 22.7363 19.2112 23.1431 18.8481L21.7245 18.7677Z" fill="white" stroke="white" stroke-width="0.3"/>
<path d="M7.21131 42.8643L7.21191 42.864L16.5459 38.551C16.546 38.5509 16.5461 38.5509 16.5462 38.5508C17.0479 38.3215 17.2644 37.7286 17.0341 37.2303C16.8033 36.731 16.1956 36.5162 15.7066 36.7454C15.7065 36.7455 15.7064 36.7455 15.7062 36.7456L6.37306 41.0583C6.37296 41.0583 6.37286 41.0584 6.37276 41.0584C5.87106 41.2878 5.65457 41.8807 5.88486 42.3789C6.11583 42.8786 6.71177 43.0925 7.21131 42.8643Z" fill="white" stroke="white" stroke-width="0.3"/>
<path d="M44.4254 18.8707L44.4256 18.8705L51.3085 11.2621C51.3086 11.2621 51.3086 11.2621 51.3086 11.2621C51.6753 10.857 51.6469 10.2241 51.2285 9.84848L51.2283 9.8483C50.8215 9.48434 50.1863 9.51233 49.8087 9.92786L49.8085 9.92811L42.9255 17.5365L42.9255 17.5365L42.9239 17.5383C42.5592 17.9546 42.599 18.5863 43.0058 18.9503C43.4126 19.3142 44.0478 19.2863 44.4254 18.8707Z" fill="white" stroke="white" stroke-width="0.3"/>
<path d="M58.524 42.5437L58.5246 42.544C59.0241 42.7721 59.62 42.5583 59.851 42.0586C60.0813 41.5604 59.8648 40.9674 59.3631 40.7381C59.363 40.7381 59.3629 40.738 59.3628 40.738L50.0288 36.4249L50.0288 36.4249L50.0282 36.4246C49.5287 36.1965 48.9327 36.4103 48.7018 36.91C48.4715 37.4082 48.688 38.0012 49.1896 38.2305C49.1897 38.2306 49.1899 38.2306 49.19 38.2306L58.524 42.5437Z" fill="white" stroke="white" stroke-width="0.3"/>
<path d="M33.4495 49.1008V49.1013L33.415 59.3293C33.415 59.3294 33.415 59.3295 33.415 59.3295L33.415 59.3298L33.265 59.3293L33.4495 49.1008ZM33.4495 49.1008C33.4495 48.5614 33.004 48.1051 32.4496 48.1042C31.8945 48.0917 31.4337 48.5482 31.446 49.1023L33.4495 49.1008Z" fill="white" stroke="white" stroke-width="0.3"/>
<path d="M20.7885 49.9241L20.7888 49.9235C21.0739 49.4648 20.9381 48.8465 20.4655 48.5506C20.001 48.2526 19.3799 48.4044 19.0844 48.8717L19.0841 48.8721L15.6426 54.3525L15.6426 54.3525L15.6423 54.3531C15.3571 54.8121 15.4932 55.4308 15.9664 55.7265L15.9674 55.7271C16.4278 56.0098 17.0491 55.8755 17.3467 55.4048L17.347 55.4044L20.7885 49.9241Z" fill="white" stroke="white" stroke-width="0.3"/>
<path d="M51.4097 25.4917L51.4097 25.4917L51.4099 25.4926C51.5582 26.0153 52.0986 26.3393 52.6407 26.1914C52.6409 26.1914 52.641 26.1914 52.6412 26.1913L58.9246 24.5212L58.9246 24.5212L58.9266 24.5206C59.4511 24.3736 59.7789 23.8363 59.6292 23.295L59.6289 23.2941C59.4806 22.7714 58.9403 22.4474 58.3982 22.5953C58.398 22.5953 58.3978 22.5954 58.3977 22.5954L52.1142 24.2655L52.1142 24.2655L52.1123 24.2661C51.5878 24.4131 51.2599 24.9504 51.4097 25.4917Z" fill="white" stroke="white" stroke-width="0.3"/>
<path d="M44.2448 49.9235L44.2448 49.9235L44.2452 49.9241L47.6867 55.4044L47.6869 55.4048C47.9845 55.8755 48.6058 56.0098 49.0662 55.7271L49.0662 55.7271L49.0672 55.7265C49.5404 55.4308 49.6766 54.8121 49.3914 54.3531L49.391 54.3525L45.9502 48.8732C45.6643 48.4011 45.0415 48.2548 44.569 48.5501C44.0957 48.8458 43.9596 49.4645 44.2448 49.9235Z" fill="white" stroke="white" stroke-width="0.3"/>
</svg>
