<svg width="64" height="65" viewBox="0 0 64 65" fill="none" xmlns="http://www.w3.org/2000/svg">
<path fill-rule="evenodd" clip-rule="evenodd" d="M36.7988 39.9816H33.3091V39.156C33.3091 31.4645 39.566 25.2075 47.2576 25.2075H53.2836C52.3796 33.5039 45.3315 39.9816 36.7988 39.9816ZM29.6909 27.0274H26.2012C17.6685 27.0274 10.6198 20.5492 9.71582 12.2534H15.7424C23.4334 12.2534 29.6909 18.5103 29.6909 26.2013V27.0274ZM47.2576 21.5894C41.5777 21.5894 36.522 24.3012 33.3091 28.4952V26.2013V26.112H33.3067C33.2578 16.4673 25.3986 8.63525 15.7424 8.63525H6V10.4443C6 21.5827 15.0622 30.6456 26.2012 30.6456H29.6909V56.9416H33.3091V43.5997H36.7988C47.9378 43.5997 57 34.5375 57 23.3984V21.5894H47.2576Z" fill="white"/>
</svg>
