<svg width="64" height="65" viewBox="0 0 64 65" fill="none" xmlns="http://www.w3.org/2000/svg">
<path d="M16.3556 23.3464C17.6126 23.3464 18.8413 22.9736 19.8865 22.2753C20.9317 21.5769 21.7463 20.5843 22.2273 19.423C22.7084 18.2617 22.8342 16.9838 22.589 15.7509C22.3438 14.518 21.7385 13.3856 20.8496 12.4968C19.9608 11.6079 18.8283 11.0026 17.5955 10.7574C16.3626 10.5121 15.0847 10.638 13.9234 11.119C12.7621 11.6001 11.7695 12.4147 11.0711 13.4599C10.3727 14.505 10 15.7338 10 16.9908C10 18.6764 10.6696 20.293 11.8615 21.4849C13.0534 22.6768 14.67 23.3464 16.3556 23.3464ZM16.3556 13.5686C17.0324 13.5686 17.6941 13.7693 18.2568 14.1453C18.8196 14.5214 19.2583 15.0559 19.5173 15.6812C19.7763 16.3065 19.8441 16.9946 19.712 17.6585C19.58 18.3223 19.254 18.9321 18.7754 19.4107C18.2968 19.8893 17.687 20.2152 17.0232 20.3473C16.3594 20.4793 15.6713 20.4116 15.0459 20.1525C14.4206 19.8935 13.8861 19.4549 13.5101 18.8921C13.134 18.3293 12.9333 17.6677 12.9333 16.9908C12.9333 16.0832 13.2939 15.2127 13.9357 14.5709C14.5775 13.9291 15.4479 13.5686 16.3556 13.5686Z" fill="white"/>
<path d="M53.5111 15.5242H28.0889V18.4575H53.5111V15.5242Z" fill="white"/>
<path d="M16.3556 38.9909C17.6126 38.9909 18.8413 38.6182 19.8865 37.9198C20.9317 37.2214 21.7463 36.2288 22.2273 35.0675C22.7084 33.9062 22.8342 32.6283 22.589 31.3954C22.3438 30.1626 21.7385 29.0301 20.8496 28.1413C19.9608 27.2524 18.8283 26.6471 17.5955 26.4019C16.3626 26.1567 15.0847 26.2825 13.9234 26.7636C12.7621 27.2446 11.7695 28.0592 11.0711 29.1044C10.3727 30.1496 10 31.3783 10 32.6353C10 33.47 10.1644 34.2964 10.4838 35.0675C10.8032 35.8386 11.2713 36.5392 11.8615 37.1294C13.0534 38.3213 14.67 38.9909 16.3556 38.9909ZM16.3556 29.2131C17.0324 29.2131 17.6941 29.4138 18.2568 29.7899C18.8196 30.1659 19.2583 30.7004 19.5173 31.3257C19.7763 31.951 19.8441 32.6391 19.712 33.303C19.58 33.9668 19.254 34.5766 18.7754 35.0552C18.2968 35.5338 17.687 35.8598 17.0232 35.9918C16.3594 36.1239 15.6713 36.0561 15.0459 35.7971C14.4206 35.538 13.8861 35.0994 13.5101 34.5366C13.134 33.9738 12.9333 33.3122 12.9333 32.6353C12.9333 31.7277 13.2939 30.8573 13.9357 30.2155C14.5775 29.5737 15.4479 29.2131 16.3556 29.2131Z" fill="white"/>
<path d="M53.5111 31.1685H28.0889V34.1018H53.5111V31.1685Z" fill="white"/>
<path d="M16.3556 54.6352C17.6126 54.6352 18.8413 54.2624 19.8865 53.5641C20.9317 52.8657 21.7463 51.8731 22.2273 50.7118C22.7084 49.5505 22.8342 48.2726 22.589 47.0397C22.3438 45.8069 21.7385 44.6744 20.8496 43.7856C19.9608 42.8967 18.8283 42.2914 17.5955 42.0462C16.3626 41.801 15.0847 41.9268 13.9234 42.4079C12.7621 42.8889 11.7695 43.7035 11.0711 44.7487C10.3727 45.7938 10 47.0226 10 48.2796C10 49.9652 10.6696 51.5818 11.8615 52.7737C13.0534 53.9656 14.67 54.6352 16.3556 54.6352ZM16.3556 44.8574C17.0324 44.8574 17.6941 45.0581 18.2568 45.4342C18.8196 45.8102 19.2583 46.3447 19.5173 46.97C19.7763 47.5953 19.8441 48.2834 19.712 48.9473C19.58 49.6111 19.254 50.2209 18.7754 50.6995C18.2968 51.1781 17.687 51.504 17.0232 51.6361C16.3594 51.7681 15.6713 51.7004 15.0459 51.4414C14.4206 51.1823 13.8861 50.7437 13.5101 50.1809C13.134 49.6181 12.9333 48.9565 12.9333 48.2796C12.9333 47.372 13.2939 46.5015 13.9357 45.8598C14.5775 45.218 15.4479 44.8574 16.3556 44.8574Z" fill="white"/>
<path d="M53.5111 46.813H28.0889V49.7463H53.5111V46.813Z" fill="white"/>
<path d="M16.3555 50.2353C17.4355 50.2353 18.311 49.3598 18.311 48.2798C18.311 47.1998 17.4355 46.3242 16.3555 46.3242C15.2754 46.3242 14.3999 47.1998 14.3999 48.2798C14.3999 49.3598 15.2754 50.2353 16.3555 50.2353Z" fill="white"/>
</svg>
