<svg width="64" height="65" viewBox="0 0 64 65" fill="none" xmlns="http://www.w3.org/2000/svg">
<path d="M53.4618 16.348L32.2993 4.76261C32.1485 4.68004 31.9794 4.63628 31.8074 4.63527C31.6354 4.63426 31.4659 4.67605 31.3141 4.75685L9.54888 16.3416C9.38308 16.4299 9.24442 16.5615 9.14774 16.7224C9.05106 16.8833 8.99999 17.0674 9 17.2551V30.3205C9.00026 36.4696 10.8184 42.4818 14.2263 47.6029C17.6342 52.7239 22.4801 56.7258 28.1562 59.1065L31.4658 60.534C31.5961 60.5902 31.7365 60.6191 31.8784 60.6188C32.0202 60.6185 32.1606 60.5892 32.2906 60.5326L35.2297 59.2528C40.8046 56.8177 45.5487 52.8131 48.8821 47.7285C52.2155 42.6439 53.9939 36.6996 54 30.6218V17.2555C54 17.0699 53.95 16.8878 53.8553 16.7281C53.7606 16.5684 53.6247 16.4371 53.4618 16.348ZM51.9276 30.6218C51.9216 36.297 50.2608 41.8476 47.148 46.5953C44.0353 51.343 39.6054 55.0823 34.3997 57.3561L31.8747 58.4556L28.9733 57.2043L28.9659 57.2012C23.6647 54.9787 19.1385 51.242 15.9552 46.4599C12.7719 41.6778 11.0733 36.0632 11.0724 30.3205V17.8764L31.7943 6.84622L51.9276 17.8682V30.6218Z" fill="white" stroke="white"/>
<path d="M26.615 19.9112V27.7477H18.7696C18.4918 27.7544 18.2277 27.8697 18.034 28.0687C17.8403 28.2677 17.7324 28.5347 17.7334 28.8122V36.4417C17.7324 36.7192 17.8403 36.9862 18.034 37.1852C18.2277 37.3842 18.4918 37.4995 18.7696 37.5062H26.615V45.3427C26.6218 45.6201 26.7371 45.8839 26.9364 46.0774C27.1356 46.2709 27.4029 46.3787 27.6808 46.3777H35.3189C35.5968 46.3787 35.8641 46.2709 36.0633 46.0774C36.2626 45.8839 36.3779 45.6201 36.3847 45.3427V37.5062H44.2301C44.5079 37.4995 44.772 37.3842 44.9657 37.1852C45.1594 36.9862 45.2673 36.7192 45.2663 36.4417V28.8122C45.2673 28.5347 45.1594 28.2677 44.9657 28.0687C44.772 27.8697 44.5079 27.7544 44.2301 27.7477H36.3847V19.9112C36.3779 19.6337 36.2626 19.3699 36.0633 19.1765C35.8641 18.983 35.5968 18.8752 35.3189 18.8762H27.6808C27.4029 18.8752 27.1356 18.983 26.9364 19.1765C26.7371 19.3699 26.6218 19.6337 26.615 19.9112ZM28.6874 28.8122V20.9462H34.3124V28.8122C34.3096 28.945 34.3337 29.077 34.3833 29.2002C34.433 29.3235 34.507 29.4354 34.601 29.5293C34.695 29.6232 34.8071 29.6972 34.9305 29.7467C35.0539 29.7963 35.186 29.8204 35.3189 29.8177H43.1939V35.4362H35.3189C35.186 35.4335 35.0539 35.4576 34.9305 35.5071C34.8071 35.5567 34.695 35.6306 34.601 35.7246C34.507 35.8185 34.433 35.9304 34.3833 36.0537C34.3337 36.1769 34.3096 36.3089 34.3124 36.4417V44.3077H28.6874V36.4417C28.6901 36.3089 28.666 36.1769 28.6164 36.0537C28.5668 35.9304 28.4927 35.8185 28.3987 35.7246C28.3047 35.6306 28.1926 35.5567 28.0692 35.5071C27.9458 35.4576 27.8137 35.4335 27.6808 35.4362H19.8058V29.8177H27.6808C27.8137 29.8204 27.9458 29.7963 28.0692 29.7467C28.1926 29.6972 28.3047 29.6232 28.3987 29.5293C28.4927 29.4354 28.5668 29.3235 28.6164 29.2002C28.666 29.077 28.6901 28.945 28.6874 28.8122Z" fill="white" stroke="white"/>
</svg>
