<svg width="48" height="46" viewBox="0 0 48 46" fill="none" xmlns="http://www.w3.org/2000/svg">
<g clip-path="url(#clip0)">
<path d="M8.10844 15.9688H2.59595V18.7812H8.10844V15.9688Z" fill="#FA3F3F"/>
<path d="M8.10844 27.2188H2.59595V30.0312H8.10844V27.2188Z" fill="#FA3F3F"/>
<path d="M8.10844 21.5938H0V24.4062H8.10844V21.5938Z" fill="#FA3F3F"/>
<path d="M29.4604 4.46039C19.2377 4.46039 10.9209 12.7772 10.9209 22.9999C10.9209 33.2226 19.2376 41.5395 29.4604 41.5395C39.6832 41.5395 48 33.2226 48 22.9999C48 12.7772 39.6832 4.46039 29.4604 4.46039ZM29.4604 38.727C20.7885 38.727 13.7334 31.6718 13.7334 22.9999C13.7334 14.328 20.7885 7.27289 29.4604 7.27289C38.1324 7.27289 45.1875 14.328 45.1875 22.9999C45.1875 31.6718 38.1324 38.727 29.4604 38.727Z" fill="#FA3F3F"/>
<path d="M30.3684 23.6987V14.6146H27.5559V25.1855L34.8035 30.1245L36.3874 27.8004L30.3684 23.6987Z" fill="#FA3F3F"/>
</g>
<defs>
<clipPath id="clip0">
<rect width="48" height="46" rx="4" fill="white"/>
</clipPath>
</defs>
</svg>
