<svg width="54" height="48" viewBox="0 0 54 48" fill="none" xmlns="http://www.w3.org/2000/svg">
<path d="M39.7617 31.9597C40.6355 31.9597 41.3438 31.2514 41.3438 30.3776C41.3438 29.5039 40.6355 28.7956 39.7617 28.7956C38.888 28.7956 38.1797 29.5039 38.1797 30.3776C38.1797 31.2514 38.888 31.9597 39.7617 31.9597Z" fill="#0075FF"/>
<path d="M50.8359 22.7396V14.5573C50.8359 13.6836 50.1276 12.9753 49.2539 12.9753H47.9807C47.5563 11.8092 44.2301 2.6709 43.7173 1.26173C43.419 0.441818 42.5129 0.0182561 41.6924 0.315151L24.1928 6.64718H4.74609C2.1291 6.64718 0 8.77628 0 11.3933V43.0339C0 45.6509 2.1291 47.78 4.74609 47.78H49.2539C50.1276 47.78 50.8359 47.0717 50.8359 46.198V38.0157C52.6773 37.3626 54 35.6041 54 33.5417V27.2136C54 25.1511 52.6773 23.3927 50.8359 22.7396ZM35.479 5.9282C36.282 7.24856 37.4553 8.30388 38.8877 8.97182C40.2623 9.61275 41.8059 9.86724 43.3951 9.62741L44.6136 12.9752H16.0031L35.479 5.9282ZM42.2752 6.55078C41.5757 6.55785 40.8777 6.40871 40.2249 6.10423C39.5693 5.79858 39.0046 5.35719 38.5595 4.8136L41.2842 3.82768L42.2752 6.55078ZM4.74609 9.81124H15.4483L6.7038 12.9753H4.74609C3.87376 12.9753 3.16406 12.2656 3.16406 11.3933C3.16406 10.5209 3.87376 9.81124 4.74609 9.81124ZM4.74609 44.6159C3.87376 44.6159 3.16406 43.9062 3.16406 43.0339V15.8673C3.65924 16.0429 4.19154 16.1394 4.74609 16.1394H47.6719V22.4675H39.7617C35.4001 22.4675 31.8516 26.016 31.8516 30.3776C31.8516 34.7393 35.4001 38.2878 39.7617 38.2878H47.6719V44.6159H4.74609ZM50.8359 33.5417C50.8359 34.414 50.1262 35.1237 49.2539 35.1237H39.7617C37.1447 35.1237 35.0156 32.9946 35.0156 30.3776C35.0156 27.7607 37.1447 25.6316 39.7617 25.6316H49.2539C50.1262 25.6316 50.8359 26.3413 50.8359 27.2136V33.5417Z" fill="#0075FF"/>
<path d="M20.8084 30.0272C19.9335 29.2329 18.7612 28.7956 17.5078 28.7956C16.6946 28.7956 15.9258 27.9241 15.9258 27.0023C15.9258 26.409 16.3395 25.8505 16.9798 25.5792C17.3778 25.4106 18.4271 25.1381 19.5711 26.2465C20.1986 26.8544 21.2001 26.8386 21.8081 26.2112C22.416 25.5837 22.4002 24.5821 21.7727 23.9742C20.9777 23.2039 20.0533 22.6837 19.0899 22.4325V20.8856C19.0899 20.0119 18.3816 19.3036 17.5079 19.3036C16.6342 19.3036 15.9259 20.0119 15.9259 20.8856V22.5938C15.8656 22.6167 15.8056 22.6406 15.7459 22.6659C13.933 23.4333 12.7617 25.1356 12.7617 27.0022C12.7617 29.6894 14.9351 31.9595 17.5078 31.9595C18.2698 31.9595 19.0898 32.3885 19.0898 33.3303C19.0898 34.0039 18.6837 34.6045 18.0792 34.8246C17.3038 35.1068 16.3839 34.7029 15.5551 33.7161C14.9932 33.0471 13.9953 32.9602 13.3262 33.5221C12.6572 34.0841 12.5703 35.082 13.1322 35.751C13.9625 36.7396 14.9219 37.4262 15.9257 37.7868V39.8697C15.9257 40.7434 16.634 41.4517 17.5077 41.4517C18.3814 41.4517 19.0897 40.7434 19.0897 39.8697V37.8222C19.1138 37.8139 19.138 37.8064 19.1621 37.7976C21.0114 37.1241 22.2539 35.3288 22.2539 33.3303C22.2539 32.0464 21.7406 30.8733 20.8084 30.0272Z" fill="#0075FF"/>
</svg>
