<svg width="161" height="29" viewBox="0 0 161 29" fill="none" xmlns="http://www.w3.org/2000/svg">
<g clip-path="url(#clip0)">
<path d="M4 27.8261H1.1C0.500004 27.8261 0.300003 27.7261 0.300003 27.0261V2.82607C0.300003 2.02607 0.800004 0.726074 2.5 0.726074H21.1C22.8 0.726074 23.3 2.02607 23.3 2.82607V27.1261C23.3 27.8261 23.1 27.9261 22.5 27.9261H19.7C19.1 27.9261 18.9 27.8261 18.9 27.1261V4.62607H4.8V27.1261C4.8 27.7261 4.6 27.8261 4 27.8261Z" fill="#FA3F3F"/>
<path d="M52.3 11.5259C52.3 14.8259 50.5 15.5259 48.4 15.5259H33.5C33.5 22.0259 37.3 24.4259 41.7 24.4259C44 24.4259 46.4 23.7259 47.8 22.9259C48.2 22.6259 48.5 22.7259 48.8 23.2259L49.9 25.4259C50.2 25.9259 50.1 26.2259 49.6 26.4259C47.1 27.9259 44.1 28.3259 41.4 28.3259C33.7 28.3259 29 24.0259 29 14.3259C29 5.22588 34.1 0.0258789 41 0.0258789C48.8 0.125879 52.3 4.72588 52.3 11.5259ZM41 3.82588C36.4 3.82588 34 7.62588 33.7 11.9259H48C48 7.62588 46.6 3.82588 41 3.82588Z" fill="#FA3F3F"/>
<path d="M92.1 27.826H60.3C58.8 27.826 57.9 26.826 57.9 25.026V1.52598C57.9 0.725976 58.2 0.625977 58.9 0.625977H61.4C62.2 0.625977 62.4 0.725976 62.4 1.52598V24.126H74V1.52598C74 0.725976 74.2 0.625977 75 0.625977H77.4C78.2 0.625977 78.4 0.725976 78.4 1.52598V24.126H90V1.52598C90 0.725976 90.3 0.625977 91 0.625977H93.5C94.1 0.625977 94.4 0.725976 94.4 1.52598V25.026C94.5 26.826 93.7 27.826 92.1 27.826Z" fill="#FA3F3F"/>
<path d="M110.8 27.826H108.3C107.6 27.826 107.4 27.626 107.4 26.926V4.52598H99.4C98.6 4.52598 98.5 4.22598 98.5 3.62598V1.62598C98.5 1.02598 98.7 0.625977 99.4 0.625977H120.2C121 0.625977 121.1 1.02598 121.1 1.62598V3.62598C121.1 4.22598 121 4.52598 120.2 4.52598H111.8V26.926C111.8 27.726 111.5 27.826 110.8 27.826Z" fill="#FA3F3F"/>
<path d="M142.8 26.626C139.7 28.026 135.9 28.426 132.5 28.426C123.6 28.426 121.4 24.426 121.4 19.826C121.4 15.026 124.4 10.626 132.7 10.626H139V9.52598C139 6.22598 138 4.12598 132.8 4.12598C130.4 4.12598 127.3 4.62598 125.6 5.12598C125 5.32598 124.7 5.32598 124.6 4.72598L124 2.52598C123.8 2.12598 123.9 1.82598 124.5 1.62598C127.1 0.525977 130.8 0.125977 133.7 0.125977C140.6 0.125977 143.6 3.32598 143.6 9.12598V25.326C143.5 26.026 143.3 26.426 142.8 26.626ZM132.9 14.526C130.4 14.526 125.9 14.926 125.9 19.826C125.9 23.626 128.8 24.726 132.5 24.726C133.7 24.726 136.8 24.526 139 23.726V14.526H132.9Z" fill="#FA3F3F"/>
<path d="M160.5 4.52617C160.5 6.62617 158.8 8.32617 156.8 8.32617C154.7 8.32617 153.1 6.62617 153.1 4.52617C153.1 2.42617 154.8 0.826172 156.8 0.826172C158.8 0.826172 160.5 2.52617 160.5 4.52617ZM161 4.52617C161 2.12617 159.1 0.326172 156.7 0.326172C154.3 0.326172 152.4 2.22617 152.4 4.52617C152.4 6.92617 154.3 8.82617 156.7 8.82617C159.1 8.82617 161 6.92617 161 4.52617ZM158.9 3.42617C158.9 3.02617 158.7 2.62617 158.4 2.42617C158 2.22617 157.6 2.22617 157.2 2.22617H155.1V7.02617H155.7V4.82617H156.8L158.2 7.02617H158.9L157.5 4.82617C158.3 4.72617 158.9 4.42617 158.9 3.42617ZM158.3 3.42617C158.3 4.42617 157.3 4.32617 156.6 4.32617H155.7V2.62617H157.1C157.7 2.62617 158.3 2.72617 158.3 3.42617Z" fill="white"/>
</g>
<defs>
<clipPath id="clip0">
<rect width="161" height="28" fill="white" transform="translate(0 0.125977)"/>
</clipPath>
</defs>
</svg>
