<svg width="20" height="20" viewBox="0 0 20 20" fill="none" xmlns="http://www.w3.org/2000/svg">
<path d="M15.0007 18.3334H1.66732C1.4463 18.3334 1.23434 18.2456 1.07806 18.0893C0.921782 17.933 0.833984 17.721 0.833984 17.5V2.50002C0.833984 2.27901 0.921782 2.06704 1.07806 1.91076C1.23434 1.75448 1.4463 1.66669 1.66732 1.66669H15.0007C15.2217 1.66669 15.4336 1.75448 15.5899 1.91076C15.7462 2.06704 15.834 2.27901 15.834 2.50002V17.5C15.834 17.721 15.7462 17.933 15.5899 18.0893C15.4336 18.2456 15.2217 18.3334 15.0007 18.3334ZM14.1673 16.6667V3.33335H2.50065V16.6667H14.1673ZM5.00065 5.83335H11.6673V7.50002H5.00065V5.83335ZM5.00065 9.16669H11.6673V10.8334H5.00065V9.16669ZM5.00065 12.5H9.16732V14.1667H5.00065V12.5Z" fill="#737373"/>
</svg>
