<svg width="20" height="20" viewBox="0 0 20 20" fill="none" xmlns="http://www.w3.org/2000/svg">
<path d="M15.0271 12.8475L18.5963 16.4158L17.4171 17.595L13.8488 14.0258C12.5211 15.0902 10.8696 15.6691 9.16797 15.6667C5.02797 15.6667 1.66797 12.3067 1.66797 8.16667C1.66797 4.02667 5.02797 0.666672 9.16797 0.666672C13.308 0.666672 16.668 4.02667 16.668 8.16667C16.6704 9.86834 16.0915 11.5198 15.0271 12.8475ZM13.3555 12.2292C14.4131 11.1416 15.0037 9.6837 15.0013 8.16667C15.0013 4.94334 12.3905 2.33334 9.16797 2.33334C5.94464 2.33334 3.33464 4.94334 3.33464 8.16667C3.33464 11.3892 5.94464 14 9.16797 14C10.685 14.0024 12.1429 13.4118 13.2305 12.3542L13.3555 12.2292Z" fill="#DADADA"/>
</svg>
