<svg width="32" height="33" viewBox="0 0 32 33" fill="none" xmlns="http://www.w3.org/2000/svg">
<circle cx="16" cy="16.126" r="15" stroke="white" stroke-width="2"/>
<path d="M21.1024 11.1885C19.8212 9.87598 18.0712 9.12598 16.1962 9.12598C12.3837 9.12598 9.25866 12.251 9.25866 16.0635C9.25866 17.3135 9.60241 18.501 10.1962 19.5322L9.22741 23.126L12.8837 22.1885C13.9149 22.7197 15.0399 23.0322 16.1962 23.0322C20.0399 23.0322 23.2274 19.9072 23.2274 16.0947C23.2274 14.2197 22.4149 12.501 21.1024 11.1885ZM16.1962 21.8447C15.1649 21.8447 14.1649 21.5635 13.2587 21.0322L13.0712 20.9072L10.8837 21.501L11.4774 19.376L11.3212 19.1572C10.7587 18.2197 10.4462 17.1572 10.4462 16.0635C10.4462 12.9072 13.0399 10.3135 16.2274 10.3135C17.7587 10.3135 19.1962 10.9072 20.2899 12.001C21.3837 13.0947 22.0399 14.5322 22.0399 16.0947C22.0399 19.251 19.3837 21.8447 16.1962 21.8447ZM19.3837 17.5322C19.1962 17.4385 18.3524 17.0322 18.1962 16.9697C18.0399 16.9072 17.9149 16.876 17.7899 17.0635C17.6962 17.2197 17.3524 17.626 17.2587 17.751C17.1337 17.8447 17.0399 17.876 16.8837 17.7822C15.8524 17.2822 15.1962 16.876 14.5087 15.7197C14.3212 15.4072 14.6962 15.4385 15.0087 14.7822C15.0712 14.6572 15.0399 14.5635 15.0087 14.4697C14.9774 14.376 14.6024 13.5322 14.4774 13.1885C14.3212 12.8447 14.1962 12.876 14.0712 12.876C13.9774 12.876 13.8524 12.876 13.7587 12.876C13.6337 12.876 13.4462 12.9072 13.2899 13.0947C13.1337 13.2822 12.6962 13.6885 12.6962 14.5322C12.6962 15.4072 13.2899 16.2197 13.3837 16.3447C13.4774 16.4385 14.6024 18.1885 16.3524 18.9385C17.4462 19.4385 17.8837 19.4697 18.4462 19.376C18.7587 19.3447 19.4462 18.9697 19.6024 18.5635C19.7587 18.1572 19.7587 17.8135 19.6962 17.751C19.6649 17.6572 19.5399 17.626 19.3837 17.5322Z" fill="white"/>
</svg>
