<svg width="32" height="33" viewBox="0 0 32 33" fill="none" xmlns="http://www.w3.org/2000/svg">
<circle cx="16" cy="16.126" r="15" stroke="white" stroke-width="2"/>
<path d="M24.2323 12.0322C24.0448 11.2822 23.451 10.6885 22.7323 10.501C21.3885 10.126 16.076 10.126 16.076 10.126C16.076 10.126 10.7323 10.126 9.38854 10.501C8.66979 10.6885 8.07604 11.2822 7.88854 12.0322C7.51354 13.3447 7.51354 16.1572 7.51354 16.1572C7.51354 16.1572 7.51354 18.9385 7.88854 20.2822C8.07604 21.0322 8.66979 21.5947 9.38854 21.7822C10.7323 22.126 16.076 22.126 16.076 22.126C16.076 22.126 21.3885 22.126 22.7323 21.7822C23.451 21.5947 24.0448 21.0322 24.2323 20.2822C24.6073 18.9385 24.6073 16.1572 24.6073 16.1572C24.6073 16.1572 24.6073 13.3447 24.2323 12.0322ZM14.326 18.6885V13.626L18.7635 16.1572L14.326 18.6885Z" fill="white"/>
</svg>
